<?xml version="1.0" encoding="utf-8"?>
<!-- Generator: Adobe Illustrator 30.0.0, SVG Export Plug-In . SVG Version: 9.03 Build 0)  -->
<svg version="1.0" id="Layer_1" xmlns="http://www.w3.org/2000/svg" xmlns:xlink="http://www.w3.org/1999/xlink" x="0px" y="0px"
	 viewBox="0 0 32 32" enable-background="new 0 0 32 32" xml:space="preserve">
<path fill="#FEF9F6" d="M4,0h24c2.2,0,4,1.8,4,4v24c0,2.2-1.8,4-4,4H4c-2.2,0-4-1.8-4-4V4C0,1.8,1.8,0,4,0z"/>
<g enable-background="new    ">
	<path fill="#CC5496" d="M10.2,19.9H4.7l-1.1,3.4H0.5L5.9,7.6h3.2l5.4,15.6h-3.2L10.2,19.9z M5.5,17.4h3.9l-1.9-6.1H7.4L5.5,17.4z"
		/>
</g>
<g>
	<path fill="#CC5496" d="M19.7,23.2V7.5H25c1.8,0,3.3,0.4,4.3,1.1c1,0.7,1.5,1.8,1.5,3.2c0,0.7-0.2,1.4-0.6,1.9s-0.9,1-1.7,1.3
		c0.9,0.2,1.6,0.6,2.1,1.3c0.5,0.7,0.7,1.4,0.7,2.3c0,1.5-0.5,2.6-1.5,3.4c-1,0.8-2.4,1.2-4.2,1.2H19.7z M22.8,14.1h2.3
		c0.8,0,1.5-0.2,1.9-0.5c0.5-0.3,0.7-0.8,0.7-1.5c0-0.7-0.2-1.3-0.7-1.6c-0.5-0.3-1.1-0.5-2-0.5h-2.1V14.1z M22.8,16.2v4.5h2.9
		c0.8,0,1.5-0.2,1.9-0.5c0.4-0.4,0.7-0.9,0.7-1.6c0-0.8-0.2-1.3-0.6-1.8c-0.4-0.4-1-0.6-1.8-0.6H22.8z"/>
</g>
<g>
	<path d="M11.8,20.1c0-0.7,0.2-1.2,0.5-1.7c0.4-0.5,0.9-1,1.6-1.5c-0.4-0.5-0.7-1-0.8-1.4c-0.2-0.4-0.3-0.8-0.3-1.3
		c0-1,0.3-1.7,0.9-2.3c0.6-0.6,1.4-0.9,2.4-0.9c0.9,0,1.6,0.3,2.1,0.8c0.6,0.5,0.8,1.2,0.8,2c0,0.5-0.1,1-0.4,1.5
		c-0.3,0.4-0.6,0.8-1.1,1.2l-0.8,0.5l2.3,2.7c0.2-0.3,0.4-0.7,0.5-1.1c0.1-0.4,0.2-0.8,0.2-1.2h1.8c0,0.8-0.1,1.5-0.3,2.1
		c-0.2,0.6-0.5,1.2-0.9,1.7l1.7,2l0,0h-2.7l-0.6-0.7c-0.5,0.3-1,0.5-1.5,0.7s-1,0.2-1.6,0.2c-1.2,0-2.2-0.3-2.9-1
		S11.8,21.1,11.8,20.1z M15.9,21.6c0.3,0,0.6,0,0.9-0.1c0.3-0.1,0.6-0.2,0.8-0.3l-2.5-2.9L15,18.4c-0.3,0.3-0.5,0.5-0.6,0.8
		c-0.1,0.3-0.2,0.5-0.2,0.8c0,0.5,0.2,0.9,0.5,1.2C15,21.5,15.4,21.6,15.9,21.6z M15,14.2c0,0.2,0.1,0.5,0.2,0.7
		c0.1,0.3,0.3,0.5,0.5,0.8l0.7-0.5c0.3-0.2,0.5-0.4,0.6-0.6c0.1-0.2,0.2-0.4,0.2-0.7c0-0.3-0.1-0.5-0.3-0.7
		c-0.2-0.2-0.5-0.3-0.8-0.3c-0.4,0-0.6,0.1-0.8,0.4C15.1,13.5,15,13.8,15,14.2z"/>
</g>
</svg>
