<svg xmlns="http://www.w3.org/2000/svg" width="1000" height="1000" viewBox="0 0 41 41" role="img" aria-label="QR code linking to https://alinaandben.com/game">
  <title>circle QR code - https://alinaandben.com/game</title>
  <rect width="41" height="41" fill="#ffffff"/>
  <g transform="translate(4 4)" fill="#21131d">
    <path d="M8.95,0.5a0.55,0.55 0 1,0 1.1,0a0.55,0.55 0 1,0 -1.1,0ZM10.95,0.5a0.55,0.55 0 1,0 1.1,0a0.55,0.55 0 1,0 -1.1,0ZM11.95,0.5a0.55,0.55 0 1,0 1.1,0a0.55,0.55 0 1,0 -1.1,0ZM13.95,0.5a0.55,0.55 0 1,0 1.1,0a0.55,0.55 0 1,0 -1.1,0ZM15.95,0.5a0.55,0.55 0 1,0 1.1,0a0.55,0.55 0 1,0 -1.1,0ZM17.95,0.5a0.55,0.55 0 1,0 1.1,0a0.55,0.55 0 1,0 -1.1,0ZM18.95,0.5a0.55,0.55 0 1,0 1.1,0a0.55,0.55 0 1,0 -1.1,0ZM19.95,0.5a0.55,0.55 0 1,0 1.1,0a0.55,0.55 0 1,0 -1.1,0ZM21.95,0.5a0.55,0.55 0 1,0 1.1,0a0.55,0.55 0 1,0 -1.1,0ZM23.95,0.5a0.55,0.55 0 1,0 1.1,0a0.55,0.55 0 1,0 -1.1,0ZM8.95,1.5a0.55,0.55 0 1,0 1.1,0a0.55,0.55 0 1,0 -1.1,0ZM10.95,1.5a0.55,0.55 0 1,0 1.1,0a0.55,0.55 0 1,0 -1.1,0ZM11.95,1.5a0.55,0.55 0 1,0 1.1,0a0.55,0.55 0 1,0 -1.1,0ZM12.95,1.5a0.55,0.55 0 1,0 1.1,0a0.55,0.55 0 1,0 -1.1,0ZM16.95,1.5a0.55,0.55 0 1,0 1.1,0a0.55,0.55 0 1,0 -1.1,0ZM19.95,1.5a0.55,0.55 0 1,0 1.1,0a0.55,0.55 0 1,0 -1.1,0ZM20.95,1.5a0.55,0.55 0 1,0 1.1,0a0.55,0.55 0 1,0 -1.1,0ZM21.95,1.5a0.55,0.55 0 1,0 1.1,0a0.55,0.55 0 1,0 -1.1,0ZM23.95,1.5a0.55,0.55 0 1,0 1.1,0a0.55,0.55 0 1,0 -1.1,0ZM7.95,2.5a0.55,0.55 0 1,0 1.1,0a0.55,0.55 0 1,0 -1.1,0ZM9.95,2.5a0.55,0.55 0 1,0 1.1,0a0.55,0.55 0 1,0 -1.1,0ZM10.95,2.5a0.55,0.55 0 1,0 1.1,0a0.55,0.55 0 1,0 -1.1,0ZM14.95,2.5a0.55,0.55 0 1,0 1.1,0a0.55,0.55 0 1,0 -1.1,0ZM15.95,2.5a0.55,0.55 0 1,0 1.1,0a0.55,0.55 0 1,0 -1.1,0ZM18.95,2.5a0.55,0.55 0 1,0 1.1,0a0.55,0.55 0 1,0 -1.1,0ZM19.95,2.5a0.55,0.55 0 1,0 1.1,0a0.55,0.55 0 1,0 -1.1,0ZM20.95,2.5a0.55,0.55 0 1,0 1.1,0a0.55,0.55 0 1,0 -1.1,0ZM21.95,2.5a0.55,0.55 0 1,0 1.1,0a0.55,0.55 0 1,0 -1.1,0ZM22.95,2.5a0.55,0.55 0 1,0 1.1,0a0.55,0.55 0 1,0 -1.1,0ZM23.95,2.5a0.55,0.55 0 1,0 1.1,0a0.55,0.55 0 1,0 -1.1,0ZM7.95,3.5a0.55,0.55 0 1,0 1.1,0a0.55,0.55 0 1,0 -1.1,0ZM8.95,3.5a0.55,0.55 0 1,0 1.1,0a0.55,0.55 0 1,0 -1.1,0ZM11.95,3.5a0.55,0.55 0 1,0 1.1,0a0.55,0.55 0 1,0 -1.1,0ZM12.95,3.5a0.55,0.55 0 1,0 1.1,0a0.55,0.55 0 1,0 -1.1,0ZM14.95,3.5a0.55,0.55 0 1,0 1.1,0a0.55,0.55 0 1,0 -1.1,0ZM16.95,3.5a0.55,0.55 0 1,0 1.1,0a0.55,0.55 0 1,0 -1.1,0ZM17.95,3.5a0.55,0.55 0 1,0 1.1,0a0.55,0.55 0 1,0 -1.1,0ZM18.95,3.5a0.55,0.55 0 1,0 1.1,0a0.55,0.55 0 1,0 -1.1,0ZM19.95,3.5a0.55,0.55 0 1,0 1.1,0a0.55,0.55 0 1,0 -1.1,0ZM20.95,3.5a0.55,0.55 0 1,0 1.1,0a0.55,0.55 0 1,0 -1.1,0ZM22.95,3.5a0.55,0.55 0 1,0 1.1,0a0.55,0.55 0 1,0 -1.1,0ZM8.95,4.5a0.55,0.55 0 1,0 1.1,0a0.55,0.55 0 1,0 -1.1,0ZM9.95,4.5a0.55,0.55 0 1,0 1.1,0a0.55,0.55 0 1,0 -1.1,0ZM10.95,4.5a0.55,0.55 0 1,0 1.1,0a0.55,0.55 0 1,0 -1.1,0ZM19.95,4.5a0.55,0.55 0 1,0 1.1,0a0.55,0.55 0 1,0 -1.1,0ZM22.95,4.5a0.55,0.55 0 1,0 1.1,0a0.55,0.55 0 1,0 -1.1,0ZM23.95,4.5a0.55,0.55 0 1,0 1.1,0a0.55,0.55 0 1,0 -1.1,0ZM9.95,5.5a0.55,0.55 0 1,0 1.1,0a0.55,0.55 0 1,0 -1.1,0ZM10.95,5.5a0.55,0.55 0 1,0 1.1,0a0.55,0.55 0 1,0 -1.1,0ZM12.95,5.5a0.55,0.55 0 1,0 1.1,0a0.55,0.55 0 1,0 -1.1,0ZM13.95,5.5a0.55,0.55 0 1,0 1.1,0a0.55,0.55 0 1,0 -1.1,0ZM14.95,5.5a0.55,0.55 0 1,0 1.1,0a0.55,0.55 0 1,0 -1.1,0ZM16.95,5.5a0.55,0.55 0 1,0 1.1,0a0.55,0.55 0 1,0 -1.1,0ZM17.95,5.5a0.55,0.55 0 1,0 1.1,0a0.55,0.55 0 1,0 -1.1,0ZM20.95,5.5a0.55,0.55 0 1,0 1.1,0a0.55,0.55 0 1,0 -1.1,0ZM22.95,5.5a0.55,0.55 0 1,0 1.1,0a0.55,0.55 0 1,0 -1.1,0ZM7.95,6.5a0.55,0.55 0 1,0 1.1,0a0.55,0.55 0 1,0 -1.1,0ZM9.95,6.5a0.55,0.55 0 1,0 1.1,0a0.55,0.55 0 1,0 -1.1,0ZM11.95,6.5a0.55,0.55 0 1,0 1.1,0a0.55,0.55 0 1,0 -1.1,0ZM13.95,6.5a0.55,0.55 0 1,0 1.1,0a0.55,0.55 0 1,0 -1.1,0ZM15.95,6.5a0.55,0.55 0 1,0 1.1,0a0.55,0.55 0 1,0 -1.1,0ZM17.95,6.5a0.55,0.55 0 1,0 1.1,0a0.55,0.55 0 1,0 -1.1,0ZM19.95,6.5a0.55,0.55 0 1,0 1.1,0a0.55,0.55 0 1,0 -1.1,0ZM21.95,6.5a0.55,0.55 0 1,0 1.1,0a0.55,0.55 0 1,0 -1.1,0ZM23.95,6.5a0.55,0.55 0 1,0 1.1,0a0.55,0.55 0 1,0 -1.1,0ZM9.95,7.5a0.55,0.55 0 1,0 1.1,0a0.55,0.55 0 1,0 -1.1,0ZM11.95,7.5a0.55,0.55 0 1,0 1.1,0a0.55,0.55 0 1,0 -1.1,0ZM14.95,7.5a0.55,0.55 0 1,0 1.1,0a0.55,0.55 0 1,0 -1.1,0ZM16.95,7.5a0.55,0.55 0 1,0 1.1,0a0.55,0.55 0 1,0 -1.1,0ZM17.95,7.5a0.55,0.55 0 1,0 1.1,0a0.55,0.55 0 1,0 -1.1,0ZM18.95,7.5a0.55,0.55 0 1,0 1.1,0a0.55,0.55 0 1,0 -1.1,0ZM19.95,7.5a0.55,0.55 0 1,0 1.1,0a0.55,0.55 0 1,0 -1.1,0ZM21.95,7.5a0.55,0.55 0 1,0 1.1,0a0.55,0.55 0 1,0 -1.1,0ZM23.95,7.5a0.55,0.55 0 1,0 1.1,0a0.55,0.55 0 1,0 -1.1,0ZM2.95,8.5a0.55,0.55 0 1,0 1.1,0a0.55,0.55 0 1,0 -1.1,0ZM3.95,8.5a0.55,0.55 0 1,0 1.1,0a0.55,0.55 0 1,0 -1.1,0ZM5.95,8.5a0.55,0.55 0 1,0 1.1,0a0.55,0.55 0 1,0 -1.1,0ZM6.95,8.5a0.55,0.55 0 1,0 1.1,0a0.55,0.55 0 1,0 -1.1,0ZM8.95,8.5a0.55,0.55 0 1,0 1.1,0a0.55,0.55 0 1,0 -1.1,0ZM9.95,8.5a0.55,0.55 0 1,0 1.1,0a0.55,0.55 0 1,0 -1.1,0ZM10.95,8.5a0.55,0.55 0 1,0 1.1,0a0.55,0.55 0 1,0 -1.1,0ZM12.95,8.5a0.55,0.55 0 1,0 1.1,0a0.55,0.55 0 1,0 -1.1,0ZM13.95,8.5a0.55,0.55 0 1,0 1.1,0a0.55,0.55 0 1,0 -1.1,0ZM17.95,8.5a0.55,0.55 0 1,0 1.1,0a0.55,0.55 0 1,0 -1.1,0ZM23.95,8.5a0.55,0.55 0 1,0 1.1,0a0.55,0.55 0 1,0 -1.1,0ZM28.95,8.5a0.55,0.55 0 1,0 1.1,0a0.55,0.55 0 1,0 -1.1,0ZM29.95,8.5a0.55,0.55 0 1,0 1.1,0a0.55,0.55 0 1,0 -1.1,0ZM-0.050000000000000044,9.5a0.55,0.55 0 1,0 1.1,0a0.55,0.55 0 1,0 -1.1,0ZM2.95,9.5a0.55,0.55 0 1,0 1.1,0a0.55,0.55 0 1,0 -1.1,0ZM3.95,9.5a0.55,0.55 0 1,0 1.1,0a0.55,0.55 0 1,0 -1.1,0ZM4.95,9.5a0.55,0.55 0 1,0 1.1,0a0.55,0.55 0 1,0 -1.1,0ZM7.95,9.5a0.55,0.55 0 1,0 1.1,0a0.55,0.55 0 1,0 -1.1,0ZM9.95,9.5a0.55,0.55 0 1,0 1.1,0a0.55,0.55 0 1,0 -1.1,0ZM10.95,9.5a0.55,0.55 0 1,0 1.1,0a0.55,0.55 0 1,0 -1.1,0ZM11.95,9.5a0.55,0.55 0 1,0 1.1,0a0.55,0.55 0 1,0 -1.1,0ZM12.95,9.5a0.55,0.55 0 1,0 1.1,0a0.55,0.55 0 1,0 -1.1,0ZM13.95,9.5a0.55,0.55 0 1,0 1.1,0a0.55,0.55 0 1,0 -1.1,0ZM14.95,9.5a0.55,0.55 0 1,0 1.1,0a0.55,0.55 0 1,0 -1.1,0ZM16.95,9.5a0.55,0.55 0 1,0 1.1,0a0.55,0.55 0 1,0 -1.1,0ZM18.95,9.5a0.55,0.55 0 1,0 1.1,0a0.55,0.55 0 1,0 -1.1,0ZM20.95,9.5a0.55,0.55 0 1,0 1.1,0a0.55,0.55 0 1,0 -1.1,0ZM21.95,9.5a0.55,0.55 0 1,0 1.1,0a0.55,0.55 0 1,0 -1.1,0ZM22.95,9.5a0.55,0.55 0 1,0 1.1,0a0.55,0.55 0 1,0 -1.1,0ZM23.95,9.5a0.55,0.55 0 1,0 1.1,0a0.55,0.55 0 1,0 -1.1,0ZM24.95,9.5a0.55,0.55 0 1,0 1.1,0a0.55,0.55 0 1,0 -1.1,0ZM26.95,9.5a0.55,0.55 0 1,0 1.1,0a0.55,0.55 0 1,0 -1.1,0ZM27.95,9.5a0.55,0.55 0 1,0 1.1,0a0.55,0.55 0 1,0 -1.1,0ZM28.95,9.5a0.55,0.55 0 1,0 1.1,0a0.55,0.55 0 1,0 -1.1,0ZM29.95,9.5a0.55,0.55 0 1,0 1.1,0a0.55,0.55 0 1,0 -1.1,0ZM1.95,10.5a0.55,0.55 0 1,0 1.1,0a0.55,0.55 0 1,0 -1.1,0ZM3.95,10.5a0.55,0.55 0 1,0 1.1,0a0.55,0.55 0 1,0 -1.1,0ZM5.95,10.5a0.55,0.55 0 1,0 1.1,0a0.55,0.55 0 1,0 -1.1,0ZM6.95,10.5a0.55,0.55 0 1,0 1.1,0a0.55,0.55 0 1,0 -1.1,0ZM7.95,10.5a0.55,0.55 0 1,0 1.1,0a0.55,0.55 0 1,0 -1.1,0ZM8.95,10.5a0.55,0.55 0 1,0 1.1,0a0.55,0.55 0 1,0 -1.1,0ZM11.95,10.5a0.55,0.55 0 1,0 1.1,0a0.55,0.55 0 1,0 -1.1,0ZM12.95,10.5a0.55,0.55 0 1,0 1.1,0a0.55,0.55 0 1,0 -1.1,0ZM18.95,10.5a0.55,0.55 0 1,0 1.1,0a0.55,0.55 0 1,0 -1.1,0ZM19.95,10.5a0.55,0.55 0 1,0 1.1,0a0.55,0.55 0 1,0 -1.1,0ZM21.95,10.5a0.55,0.55 0 1,0 1.1,0a0.55,0.55 0 1,0 -1.1,0ZM22.95,10.5a0.55,0.55 0 1,0 1.1,0a0.55,0.55 0 1,0 -1.1,0ZM24.95,10.5a0.55,0.55 0 1,0 1.1,0a0.55,0.55 0 1,0 -1.1,0ZM26.95,10.5a0.55,0.55 0 1,0 1.1,0a0.55,0.55 0 1,0 -1.1,0ZM29.95,10.5a0.55,0.55 0 1,0 1.1,0a0.55,0.55 0 1,0 -1.1,0ZM30.95,10.5a0.55,0.55 0 1,0 1.1,0a0.55,0.55 0 1,0 -1.1,0ZM31.95,10.5a0.55,0.55 0 1,0 1.1,0a0.55,0.55 0 1,0 -1.1,0ZM2.95,11.5a0.55,0.55 0 1,0 1.1,0a0.55,0.55 0 1,0 -1.1,0ZM3.95,11.5a0.55,0.55 0 1,0 1.1,0a0.55,0.55 0 1,0 -1.1,0ZM6.95,11.5a0.55,0.55 0 1,0 1.1,0a0.55,0.55 0 1,0 -1.1,0ZM10.95,11.5a0.55,0.55 0 1,0 1.1,0a0.55,0.55 0 1,0 -1.1,0ZM11.95,11.5a0.55,0.55 0 1,0 1.1,0a0.55,0.55 0 1,0 -1.1,0ZM12.95,11.5a0.55,0.55 0 1,0 1.1,0a0.55,0.55 0 1,0 -1.1,0ZM14.95,11.5a0.55,0.55 0 1,0 1.1,0a0.55,0.55 0 1,0 -1.1,0ZM15.95,11.5a0.55,0.55 0 1,0 1.1,0a0.55,0.55 0 1,0 -1.1,0ZM17.95,11.5a0.55,0.55 0 1,0 1.1,0a0.55,0.55 0 1,0 -1.1,0ZM20.95,11.5a0.55,0.55 0 1,0 1.1,0a0.55,0.55 0 1,0 -1.1,0ZM21.95,11.5a0.55,0.55 0 1,0 1.1,0a0.55,0.55 0 1,0 -1.1,0ZM22.95,11.5a0.55,0.55 0 1,0 1.1,0a0.55,0.55 0 1,0 -1.1,0ZM25.95,11.5a0.55,0.55 0 1,0 1.1,0a0.55,0.55 0 1,0 -1.1,0ZM26.95,11.5a0.55,0.55 0 1,0 1.1,0a0.55,0.55 0 1,0 -1.1,0ZM27.95,11.5a0.55,0.55 0 1,0 1.1,0a0.55,0.55 0 1,0 -1.1,0ZM29.95,11.5a0.55,0.55 0 1,0 1.1,0a0.55,0.55 0 1,0 -1.1,0ZM30.95,11.5a0.55,0.55 0 1,0 1.1,0a0.55,0.55 0 1,0 -1.1,0ZM-0.050000000000000044,12.5a0.55,0.55 0 1,0 1.1,0a0.55,0.55 0 1,0 -1.1,0ZM0.95,12.5a0.55,0.55 0 1,0 1.1,0a0.55,0.55 0 1,0 -1.1,0ZM1.95,12.5a0.55,0.55 0 1,0 1.1,0a0.55,0.55 0 1,0 -1.1,0ZM5.95,12.5a0.55,0.55 0 1,0 1.1,0a0.55,0.55 0 1,0 -1.1,0ZM6.95,12.5a0.55,0.55 0 1,0 1.1,0a0.55,0.55 0 1,0 -1.1,0ZM7.95,12.5a0.55,0.55 0 1,0 1.1,0a0.55,0.55 0 1,0 -1.1,0ZM8.95,12.5a0.55,0.55 0 1,0 1.1,0a0.55,0.55 0 1,0 -1.1,0ZM9.95,12.5a0.55,0.55 0 1,0 1.1,0a0.55,0.55 0 1,0 -1.1,0ZM12.95,12.5a0.55,0.55 0 1,0 1.1,0a0.55,0.55 0 1,0 -1.1,0ZM13.95,12.5a0.55,0.55 0 1,0 1.1,0a0.55,0.55 0 1,0 -1.1,0ZM14.95,12.5a0.55,0.55 0 1,0 1.1,0a0.55,0.55 0 1,0 -1.1,0ZM15.95,12.5a0.55,0.55 0 1,0 1.1,0a0.55,0.55 0 1,0 -1.1,0ZM16.95,12.5a0.55,0.55 0 1,0 1.1,0a0.55,0.55 0 1,0 -1.1,0ZM17.95,12.5a0.55,0.55 0 1,0 1.1,0a0.55,0.55 0 1,0 -1.1,0ZM18.95,12.5a0.55,0.55 0 1,0 1.1,0a0.55,0.55 0 1,0 -1.1,0ZM19.95,12.5a0.55,0.55 0 1,0 1.1,0a0.55,0.55 0 1,0 -1.1,0ZM20.95,12.5a0.55,0.55 0 1,0 1.1,0a0.55,0.55 0 1,0 -1.1,0ZM23.95,12.5a0.55,0.55 0 1,0 1.1,0a0.55,0.55 0 1,0 -1.1,0ZM25.95,12.5a0.55,0.55 0 1,0 1.1,0a0.55,0.55 0 1,0 -1.1,0ZM26.95,12.5a0.55,0.55 0 1,0 1.1,0a0.55,0.55 0 1,0 -1.1,0ZM27.95,12.5a0.55,0.55 0 1,0 1.1,0a0.55,0.55 0 1,0 -1.1,0ZM28.95,12.5a0.55,0.55 0 1,0 1.1,0a0.55,0.55 0 1,0 -1.1,0ZM30.95,12.5a0.55,0.55 0 1,0 1.1,0a0.55,0.55 0 1,0 -1.1,0ZM31.95,12.5a0.55,0.55 0 1,0 1.1,0a0.55,0.55 0 1,0 -1.1,0ZM-0.050000000000000044,13.5a0.55,0.55 0 1,0 1.1,0a0.55,0.55 0 1,0 -1.1,0ZM2.95,13.5a0.55,0.55 0 1,0 1.1,0a0.55,0.55 0 1,0 -1.1,0ZM3.95,13.5a0.55,0.55 0 1,0 1.1,0a0.55,0.55 0 1,0 -1.1,0ZM6.95,13.5a0.55,0.55 0 1,0 1.1,0a0.55,0.55 0 1,0 -1.1,0ZM7.95,13.5a0.55,0.55 0 1,0 1.1,0a0.55,0.55 0 1,0 -1.1,0ZM8.95,13.5a0.55,0.55 0 1,0 1.1,0a0.55,0.55 0 1,0 -1.1,0ZM13.95,13.5a0.55,0.55 0 1,0 1.1,0a0.55,0.55 0 1,0 -1.1,0ZM15.95,13.5a0.55,0.55 0 1,0 1.1,0a0.55,0.55 0 1,0 -1.1,0ZM17.95,13.5a0.55,0.55 0 1,0 1.1,0a0.55,0.55 0 1,0 -1.1,0ZM20.95,13.5a0.55,0.55 0 1,0 1.1,0a0.55,0.55 0 1,0 -1.1,0ZM22.95,13.5a0.55,0.55 0 1,0 1.1,0a0.55,0.55 0 1,0 -1.1,0ZM24.95,13.5a0.55,0.55 0 1,0 1.1,0a0.55,0.55 0 1,0 -1.1,0ZM26.95,13.5a0.55,0.55 0 1,0 1.1,0a0.55,0.55 0 1,0 -1.1,0ZM27.95,13.5a0.55,0.55 0 1,0 1.1,0a0.55,0.55 0 1,0 -1.1,0ZM28.95,13.5a0.55,0.55 0 1,0 1.1,0a0.55,0.55 0 1,0 -1.1,0ZM30.95,13.5a0.55,0.55 0 1,0 1.1,0a0.55,0.55 0 1,0 -1.1,0ZM-0.050000000000000044,14.5a0.55,0.55 0 1,0 1.1,0a0.55,0.55 0 1,0 -1.1,0ZM0.95,14.5a0.55,0.55 0 1,0 1.1,0a0.55,0.55 0 1,0 -1.1,0ZM1.95,14.5a0.55,0.55 0 1,0 1.1,0a0.55,0.55 0 1,0 -1.1,0ZM2.95,14.5a0.55,0.55 0 1,0 1.1,0a0.55,0.55 0 1,0 -1.1,0ZM3.95,14.5a0.55,0.55 0 1,0 1.1,0a0.55,0.55 0 1,0 -1.1,0ZM4.95,14.5a0.55,0.55 0 1,0 1.1,0a0.55,0.55 0 1,0 -1.1,0ZM5.95,14.5a0.55,0.55 0 1,0 1.1,0a0.55,0.55 0 1,0 -1.1,0ZM8.95,14.5a0.55,0.55 0 1,0 1.1,0a0.55,0.55 0 1,0 -1.1,0ZM10.95,14.5a0.55,0.55 0 1,0 1.1,0a0.55,0.55 0 1,0 -1.1,0ZM12.95,14.5a0.55,0.55 0 1,0 1.1,0a0.55,0.55 0 1,0 -1.1,0ZM14.95,14.5a0.55,0.55 0 1,0 1.1,0a0.55,0.55 0 1,0 -1.1,0ZM15.95,14.5a0.55,0.55 0 1,0 1.1,0a0.55,0.55 0 1,0 -1.1,0ZM18.95,14.5a0.55,0.55 0 1,0 1.1,0a0.55,0.55 0 1,0 -1.1,0ZM24.95,14.5a0.55,0.55 0 1,0 1.1,0a0.55,0.55 0 1,0 -1.1,0ZM26.95,14.5a0.55,0.55 0 1,0 1.1,0a0.55,0.55 0 1,0 -1.1,0ZM28.95,14.5a0.55,0.55 0 1,0 1.1,0a0.55,0.55 0 1,0 -1.1,0ZM29.95,14.5a0.55,0.55 0 1,0 1.1,0a0.55,0.55 0 1,0 -1.1,0ZM2.95,15.5a0.55,0.55 0 1,0 1.1,0a0.55,0.55 0 1,0 -1.1,0ZM6.95,15.5a0.55,0.55 0 1,0 1.1,0a0.55,0.55 0 1,0 -1.1,0ZM7.95,15.5a0.55,0.55 0 1,0 1.1,0a0.55,0.55 0 1,0 -1.1,0ZM8.95,15.5a0.55,0.55 0 1,0 1.1,0a0.55,0.55 0 1,0 -1.1,0ZM11.95,15.5a0.55,0.55 0 1,0 1.1,0a0.55,0.55 0 1,0 -1.1,0ZM13.95,15.5a0.55,0.55 0 1,0 1.1,0a0.55,0.55 0 1,0 -1.1,0ZM14.95,15.5a0.55,0.55 0 1,0 1.1,0a0.55,0.55 0 1,0 -1.1,0ZM15.95,15.5a0.55,0.55 0 1,0 1.1,0a0.55,0.55 0 1,0 -1.1,0ZM23.95,15.5a0.55,0.55 0 1,0 1.1,0a0.55,0.55 0 1,0 -1.1,0ZM24.95,15.5a0.55,0.55 0 1,0 1.1,0a0.55,0.55 0 1,0 -1.1,0ZM26.95,15.5a0.55,0.55 0 1,0 1.1,0a0.55,0.55 0 1,0 -1.1,0ZM28.95,15.5a0.55,0.55 0 1,0 1.1,0a0.55,0.55 0 1,0 -1.1,0ZM29.95,15.5a0.55,0.55 0 1,0 1.1,0a0.55,0.55 0 1,0 -1.1,0ZM31.95,15.5a0.55,0.55 0 1,0 1.1,0a0.55,0.55 0 1,0 -1.1,0ZM2.95,16.5a0.55,0.55 0 1,0 1.1,0a0.55,0.55 0 1,0 -1.1,0ZM3.95,16.5a0.55,0.55 0 1,0 1.1,0a0.55,0.55 0 1,0 -1.1,0ZM4.95,16.5a0.55,0.55 0 1,0 1.1,0a0.55,0.55 0 1,0 -1.1,0ZM5.95,16.5a0.55,0.55 0 1,0 1.1,0a0.55,0.55 0 1,0 -1.1,0ZM7.95,16.5a0.55,0.55 0 1,0 1.1,0a0.55,0.55 0 1,0 -1.1,0ZM8.95,16.5a0.55,0.55 0 1,0 1.1,0a0.55,0.55 0 1,0 -1.1,0ZM18.95,16.5a0.55,0.55 0 1,0 1.1,0a0.55,0.55 0 1,0 -1.1,0ZM19.95,16.5a0.55,0.55 0 1,0 1.1,0a0.55,0.55 0 1,0 -1.1,0ZM22.95,16.5a0.55,0.55 0 1,0 1.1,0a0.55,0.55 0 1,0 -1.1,0ZM24.95,16.5a0.55,0.55 0 1,0 1.1,0a0.55,0.55 0 1,0 -1.1,0ZM25.95,16.5a0.55,0.55 0 1,0 1.1,0a0.55,0.55 0 1,0 -1.1,0ZM26.95,16.5a0.55,0.55 0 1,0 1.1,0a0.55,0.55 0 1,0 -1.1,0ZM27.95,16.5a0.55,0.55 0 1,0 1.1,0a0.55,0.55 0 1,0 -1.1,0ZM28.95,16.5a0.55,0.55 0 1,0 1.1,0a0.55,0.55 0 1,0 -1.1,0ZM30.95,16.5a0.55,0.55 0 1,0 1.1,0a0.55,0.55 0 1,0 -1.1,0ZM-0.050000000000000044,17.5a0.55,0.55 0 1,0 1.1,0a0.55,0.55 0 1,0 -1.1,0ZM0.95,17.5a0.55,0.55 0 1,0 1.1,0a0.55,0.55 0 1,0 -1.1,0ZM3.95,17.5a0.55,0.55 0 1,0 1.1,0a0.55,0.55 0 1,0 -1.1,0ZM4.95,17.5a0.55,0.55 0 1,0 1.1,0a0.55,0.55 0 1,0 -1.1,0ZM7.95,17.5a0.55,0.55 0 1,0 1.1,0a0.55,0.55 0 1,0 -1.1,0ZM8.95,17.5a0.55,0.55 0 1,0 1.1,0a0.55,0.55 0 1,0 -1.1,0ZM9.95,17.5a0.55,0.55 0 1,0 1.1,0a0.55,0.55 0 1,0 -1.1,0ZM11.95,17.5a0.55,0.55 0 1,0 1.1,0a0.55,0.55 0 1,0 -1.1,0ZM12.95,17.5a0.55,0.55 0 1,0 1.1,0a0.55,0.55 0 1,0 -1.1,0ZM14.95,17.5a0.55,0.55 0 1,0 1.1,0a0.55,0.55 0 1,0 -1.1,0ZM15.95,17.5a0.55,0.55 0 1,0 1.1,0a0.55,0.55 0 1,0 -1.1,0ZM16.95,17.5a0.55,0.55 0 1,0 1.1,0a0.55,0.55 0 1,0 -1.1,0ZM18.95,17.5a0.55,0.55 0 1,0 1.1,0a0.55,0.55 0 1,0 -1.1,0ZM19.95,17.5a0.55,0.55 0 1,0 1.1,0a0.55,0.55 0 1,0 -1.1,0ZM21.95,17.5a0.55,0.55 0 1,0 1.1,0a0.55,0.55 0 1,0 -1.1,0ZM23.95,17.5a0.55,0.55 0 1,0 1.1,0a0.55,0.55 0 1,0 -1.1,0ZM25.95,17.5a0.55,0.55 0 1,0 1.1,0a0.55,0.55 0 1,0 -1.1,0ZM26.95,17.5a0.55,0.55 0 1,0 1.1,0a0.55,0.55 0 1,0 -1.1,0ZM27.95,17.5a0.55,0.55 0 1,0 1.1,0a0.55,0.55 0 1,0 -1.1,0ZM28.95,17.5a0.55,0.55 0 1,0 1.1,0a0.55,0.55 0 1,0 -1.1,0ZM31.95,17.5a0.55,0.55 0 1,0 1.1,0a0.55,0.55 0 1,0 -1.1,0ZM0.95,18.5a0.55,0.55 0 1,0 1.1,0a0.55,0.55 0 1,0 -1.1,0ZM1.95,18.5a0.55,0.55 0 1,0 1.1,0a0.55,0.55 0 1,0 -1.1,0ZM2.95,18.5a0.55,0.55 0 1,0 1.1,0a0.55,0.55 0 1,0 -1.1,0ZM5.95,18.5a0.55,0.55 0 1,0 1.1,0a0.55,0.55 0 1,0 -1.1,0ZM6.95,18.5a0.55,0.55 0 1,0 1.1,0a0.55,0.55 0 1,0 -1.1,0ZM8.95,18.5a0.55,0.55 0 1,0 1.1,0a0.55,0.55 0 1,0 -1.1,0ZM9.95,18.5a0.55,0.55 0 1,0 1.1,0a0.55,0.55 0 1,0 -1.1,0ZM10.95,18.5a0.55,0.55 0 1,0 1.1,0a0.55,0.55 0 1,0 -1.1,0ZM12.95,18.5a0.55,0.55 0 1,0 1.1,0a0.55,0.55 0 1,0 -1.1,0ZM13.95,18.5a0.55,0.55 0 1,0 1.1,0a0.55,0.55 0 1,0 -1.1,0ZM15.95,18.5a0.55,0.55 0 1,0 1.1,0a0.55,0.55 0 1,0 -1.1,0ZM16.95,18.5a0.55,0.55 0 1,0 1.1,0a0.55,0.55 0 1,0 -1.1,0ZM17.95,18.5a0.55,0.55 0 1,0 1.1,0a0.55,0.55 0 1,0 -1.1,0ZM20.95,18.5a0.55,0.55 0 1,0 1.1,0a0.55,0.55 0 1,0 -1.1,0ZM22.95,18.5a0.55,0.55 0 1,0 1.1,0a0.55,0.55 0 1,0 -1.1,0ZM24.95,18.5a0.55,0.55 0 1,0 1.1,0a0.55,0.55 0 1,0 -1.1,0ZM25.95,18.5a0.55,0.55 0 1,0 1.1,0a0.55,0.55 0 1,0 -1.1,0ZM26.95,18.5a0.55,0.55 0 1,0 1.1,0a0.55,0.55 0 1,0 -1.1,0ZM28.95,18.5a0.55,0.55 0 1,0 1.1,0a0.55,0.55 0 1,0 -1.1,0ZM29.95,18.5a0.55,0.55 0 1,0 1.1,0a0.55,0.55 0 1,0 -1.1,0ZM31.95,18.5a0.55,0.55 0 1,0 1.1,0a0.55,0.55 0 1,0 -1.1,0ZM0.95,19.5a0.55,0.55 0 1,0 1.1,0a0.55,0.55 0 1,0 -1.1,0ZM1.95,19.5a0.55,0.55 0 1,0 1.1,0a0.55,0.55 0 1,0 -1.1,0ZM2.95,19.5a0.55,0.55 0 1,0 1.1,0a0.55,0.55 0 1,0 -1.1,0ZM4.95,19.5a0.55,0.55 0 1,0 1.1,0a0.55,0.55 0 1,0 -1.1,0ZM7.95,19.5a0.55,0.55 0 1,0 1.1,0a0.55,0.55 0 1,0 -1.1,0ZM9.95,19.5a0.55,0.55 0 1,0 1.1,0a0.55,0.55 0 1,0 -1.1,0ZM10.95,19.5a0.55,0.55 0 1,0 1.1,0a0.55,0.55 0 1,0 -1.1,0ZM11.95,19.5a0.55,0.55 0 1,0 1.1,0a0.55,0.55 0 1,0 -1.1,0ZM12.95,19.5a0.55,0.55 0 1,0 1.1,0a0.55,0.55 0 1,0 -1.1,0ZM14.95,19.5a0.55,0.55 0 1,0 1.1,0a0.55,0.55 0 1,0 -1.1,0ZM16.95,19.5a0.55,0.55 0 1,0 1.1,0a0.55,0.55 0 1,0 -1.1,0ZM18.95,19.5a0.55,0.55 0 1,0 1.1,0a0.55,0.55 0 1,0 -1.1,0ZM19.95,19.5a0.55,0.55 0 1,0 1.1,0a0.55,0.55 0 1,0 -1.1,0ZM22.95,19.5a0.55,0.55 0 1,0 1.1,0a0.55,0.55 0 1,0 -1.1,0ZM23.95,19.5a0.55,0.55 0 1,0 1.1,0a0.55,0.55 0 1,0 -1.1,0ZM25.95,19.5a0.55,0.55 0 1,0 1.1,0a0.55,0.55 0 1,0 -1.1,0ZM26.95,19.5a0.55,0.55 0 1,0 1.1,0a0.55,0.55 0 1,0 -1.1,0ZM27.95,19.5a0.55,0.55 0 1,0 1.1,0a0.55,0.55 0 1,0 -1.1,0ZM28.95,19.5a0.55,0.55 0 1,0 1.1,0a0.55,0.55 0 1,0 -1.1,0ZM29.95,19.5a0.55,0.55 0 1,0 1.1,0a0.55,0.55 0 1,0 -1.1,0ZM31.95,19.5a0.55,0.55 0 1,0 1.1,0a0.55,0.55 0 1,0 -1.1,0ZM-0.050000000000000044,20.5a0.55,0.55 0 1,0 1.1,0a0.55,0.55 0 1,0 -1.1,0ZM1.95,20.5a0.55,0.55 0 1,0 1.1,0a0.55,0.55 0 1,0 -1.1,0ZM4.95,20.5a0.55,0.55 0 1,0 1.1,0a0.55,0.55 0 1,0 -1.1,0ZM5.95,20.5a0.55,0.55 0 1,0 1.1,0a0.55,0.55 0 1,0 -1.1,0ZM7.95,20.5a0.55,0.55 0 1,0 1.1,0a0.55,0.55 0 1,0 -1.1,0ZM8.95,20.5a0.55,0.55 0 1,0 1.1,0a0.55,0.55 0 1,0 -1.1,0ZM9.95,20.5a0.55,0.55 0 1,0 1.1,0a0.55,0.55 0 1,0 -1.1,0ZM10.95,20.5a0.55,0.55 0 1,0 1.1,0a0.55,0.55 0 1,0 -1.1,0ZM12.95,20.5a0.55,0.55 0 1,0 1.1,0a0.55,0.55 0 1,0 -1.1,0ZM13.95,20.5a0.55,0.55 0 1,0 1.1,0a0.55,0.55 0 1,0 -1.1,0ZM16.95,20.5a0.55,0.55 0 1,0 1.1,0a0.55,0.55 0 1,0 -1.1,0ZM19.95,20.5a0.55,0.55 0 1,0 1.1,0a0.55,0.55 0 1,0 -1.1,0ZM23.95,20.5a0.55,0.55 0 1,0 1.1,0a0.55,0.55 0 1,0 -1.1,0ZM24.95,20.5a0.55,0.55 0 1,0 1.1,0a0.55,0.55 0 1,0 -1.1,0ZM26.95,20.5a0.55,0.55 0 1,0 1.1,0a0.55,0.55 0 1,0 -1.1,0ZM28.95,20.5a0.55,0.55 0 1,0 1.1,0a0.55,0.55 0 1,0 -1.1,0ZM30.95,20.5a0.55,0.55 0 1,0 1.1,0a0.55,0.55 0 1,0 -1.1,0ZM-0.050000000000000044,21.5a0.55,0.55 0 1,0 1.1,0a0.55,0.55 0 1,0 -1.1,0ZM2.95,21.5a0.55,0.55 0 1,0 1.1,0a0.55,0.55 0 1,0 -1.1,0ZM4.95,21.5a0.55,0.55 0 1,0 1.1,0a0.55,0.55 0 1,0 -1.1,0ZM6.95,21.5a0.55,0.55 0 1,0 1.1,0a0.55,0.55 0 1,0 -1.1,0ZM9.95,21.5a0.55,0.55 0 1,0 1.1,0a0.55,0.55 0 1,0 -1.1,0ZM21.95,21.5a0.55,0.55 0 1,0 1.1,0a0.55,0.55 0 1,0 -1.1,0ZM24.95,21.5a0.55,0.55 0 1,0 1.1,0a0.55,0.55 0 1,0 -1.1,0ZM25.95,21.5a0.55,0.55 0 1,0 1.1,0a0.55,0.55 0 1,0 -1.1,0ZM26.95,21.5a0.55,0.55 0 1,0 1.1,0a0.55,0.55 0 1,0 -1.1,0ZM27.95,21.5a0.55,0.55 0 1,0 1.1,0a0.55,0.55 0 1,0 -1.1,0ZM28.95,21.5a0.55,0.55 0 1,0 1.1,0a0.55,0.55 0 1,0 -1.1,0ZM-0.050000000000000044,22.5a0.55,0.55 0 1,0 1.1,0a0.55,0.55 0 1,0 -1.1,0ZM4.95,22.5a0.55,0.55 0 1,0 1.1,0a0.55,0.55 0 1,0 -1.1,0ZM5.95,22.5a0.55,0.55 0 1,0 1.1,0a0.55,0.55 0 1,0 -1.1,0ZM6.95,22.5a0.55,0.55 0 1,0 1.1,0a0.55,0.55 0 1,0 -1.1,0ZM9.95,22.5a0.55,0.55 0 1,0 1.1,0a0.55,0.55 0 1,0 -1.1,0ZM10.95,22.5a0.55,0.55 0 1,0 1.1,0a0.55,0.55 0 1,0 -1.1,0ZM12.95,22.5a0.55,0.55 0 1,0 1.1,0a0.55,0.55 0 1,0 -1.1,0ZM13.95,22.5a0.55,0.55 0 1,0 1.1,0a0.55,0.55 0 1,0 -1.1,0ZM15.95,22.5a0.55,0.55 0 1,0 1.1,0a0.55,0.55 0 1,0 -1.1,0ZM16.95,22.5a0.55,0.55 0 1,0 1.1,0a0.55,0.55 0 1,0 -1.1,0ZM17.95,22.5a0.55,0.55 0 1,0 1.1,0a0.55,0.55 0 1,0 -1.1,0ZM21.95,22.5a0.55,0.55 0 1,0 1.1,0a0.55,0.55 0 1,0 -1.1,0ZM23.95,22.5a0.55,0.55 0 1,0 1.1,0a0.55,0.55 0 1,0 -1.1,0ZM25.95,22.5a0.55,0.55 0 1,0 1.1,0a0.55,0.55 0 1,0 -1.1,0ZM28.95,22.5a0.55,0.55 0 1,0 1.1,0a0.55,0.55 0 1,0 -1.1,0ZM29.95,22.5a0.55,0.55 0 1,0 1.1,0a0.55,0.55 0 1,0 -1.1,0ZM30.95,22.5a0.55,0.55 0 1,0 1.1,0a0.55,0.55 0 1,0 -1.1,0ZM31.95,22.5a0.55,0.55 0 1,0 1.1,0a0.55,0.55 0 1,0 -1.1,0ZM-0.050000000000000044,23.5a0.55,0.55 0 1,0 1.1,0a0.55,0.55 0 1,0 -1.1,0ZM2.95,23.5a0.55,0.55 0 1,0 1.1,0a0.55,0.55 0 1,0 -1.1,0ZM3.95,23.5a0.55,0.55 0 1,0 1.1,0a0.55,0.55 0 1,0 -1.1,0ZM4.95,23.5a0.55,0.55 0 1,0 1.1,0a0.55,0.55 0 1,0 -1.1,0ZM9.95,23.5a0.55,0.55 0 1,0 1.1,0a0.55,0.55 0 1,0 -1.1,0ZM10.95,23.5a0.55,0.55 0 1,0 1.1,0a0.55,0.55 0 1,0 -1.1,0ZM18.95,23.5a0.55,0.55 0 1,0 1.1,0a0.55,0.55 0 1,0 -1.1,0ZM19.95,23.5a0.55,0.55 0 1,0 1.1,0a0.55,0.55 0 1,0 -1.1,0ZM29.95,23.5a0.55,0.55 0 1,0 1.1,0a0.55,0.55 0 1,0 -1.1,0ZM31.95,23.5a0.55,0.55 0 1,0 1.1,0a0.55,0.55 0 1,0 -1.1,0ZM-0.050000000000000044,24.5a0.55,0.55 0 1,0 1.1,0a0.55,0.55 0 1,0 -1.1,0ZM0.95,24.5a0.55,0.55 0 1,0 1.1,0a0.55,0.55 0 1,0 -1.1,0ZM1.95,24.5a0.55,0.55 0 1,0 1.1,0a0.55,0.55 0 1,0 -1.1,0ZM2.95,24.5a0.55,0.55 0 1,0 1.1,0a0.55,0.55 0 1,0 -1.1,0ZM3.95,24.5a0.55,0.55 0 1,0 1.1,0a0.55,0.55 0 1,0 -1.1,0ZM4.95,24.5a0.55,0.55 0 1,0 1.1,0a0.55,0.55 0 1,0 -1.1,0ZM5.95,24.5a0.55,0.55 0 1,0 1.1,0a0.55,0.55 0 1,0 -1.1,0ZM6.95,24.5a0.55,0.55 0 1,0 1.1,0a0.55,0.55 0 1,0 -1.1,0ZM7.95,24.5a0.55,0.55 0 1,0 1.1,0a0.55,0.55 0 1,0 -1.1,0ZM9.95,24.5a0.55,0.55 0 1,0 1.1,0a0.55,0.55 0 1,0 -1.1,0ZM10.95,24.5a0.55,0.55 0 1,0 1.1,0a0.55,0.55 0 1,0 -1.1,0ZM11.95,24.5a0.55,0.55 0 1,0 1.1,0a0.55,0.55 0 1,0 -1.1,0ZM13.95,24.5a0.55,0.55 0 1,0 1.1,0a0.55,0.55 0 1,0 -1.1,0ZM14.95,24.5a0.55,0.55 0 1,0 1.1,0a0.55,0.55 0 1,0 -1.1,0ZM18.95,24.5a0.55,0.55 0 1,0 1.1,0a0.55,0.55 0 1,0 -1.1,0ZM23.95,24.5a0.55,0.55 0 1,0 1.1,0a0.55,0.55 0 1,0 -1.1,0ZM24.95,24.5a0.55,0.55 0 1,0 1.1,0a0.55,0.55 0 1,0 -1.1,0ZM25.95,24.5a0.55,0.55 0 1,0 1.1,0a0.55,0.55 0 1,0 -1.1,0ZM26.95,24.5a0.55,0.55 0 1,0 1.1,0a0.55,0.55 0 1,0 -1.1,0ZM27.95,24.5a0.55,0.55 0 1,0 1.1,0a0.55,0.55 0 1,0 -1.1,0ZM28.95,24.5a0.55,0.55 0 1,0 1.1,0a0.55,0.55 0 1,0 -1.1,0ZM30.95,24.5a0.55,0.55 0 1,0 1.1,0a0.55,0.55 0 1,0 -1.1,0ZM31.95,24.5a0.55,0.55 0 1,0 1.1,0a0.55,0.55 0 1,0 -1.1,0ZM7.95,25.5a0.55,0.55 0 1,0 1.1,0a0.55,0.55 0 1,0 -1.1,0ZM8.95,25.5a0.55,0.55 0 1,0 1.1,0a0.55,0.55 0 1,0 -1.1,0ZM9.95,25.5a0.55,0.55 0 1,0 1.1,0a0.55,0.55 0 1,0 -1.1,0ZM10.95,25.5a0.55,0.55 0 1,0 1.1,0a0.55,0.55 0 1,0 -1.1,0ZM11.95,25.5a0.55,0.55 0 1,0 1.1,0a0.55,0.55 0 1,0 -1.1,0ZM12.95,25.5a0.55,0.55 0 1,0 1.1,0a0.55,0.55 0 1,0 -1.1,0ZM13.95,25.5a0.55,0.55 0 1,0 1.1,0a0.55,0.55 0 1,0 -1.1,0ZM15.95,25.5a0.55,0.55 0 1,0 1.1,0a0.55,0.55 0 1,0 -1.1,0ZM16.95,25.5a0.55,0.55 0 1,0 1.1,0a0.55,0.55 0 1,0 -1.1,0ZM18.95,25.5a0.55,0.55 0 1,0 1.1,0a0.55,0.55 0 1,0 -1.1,0ZM23.95,25.5a0.55,0.55 0 1,0 1.1,0a0.55,0.55 0 1,0 -1.1,0ZM27.95,25.5a0.55,0.55 0 1,0 1.1,0a0.55,0.55 0 1,0 -1.1,0ZM28.95,25.5a0.55,0.55 0 1,0 1.1,0a0.55,0.55 0 1,0 -1.1,0ZM30.95,25.5a0.55,0.55 0 1,0 1.1,0a0.55,0.55 0 1,0 -1.1,0ZM7.95,26.5a0.55,0.55 0 1,0 1.1,0a0.55,0.55 0 1,0 -1.1,0ZM8.95,26.5a0.55,0.55 0 1,0 1.1,0a0.55,0.55 0 1,0 -1.1,0ZM9.95,26.5a0.55,0.55 0 1,0 1.1,0a0.55,0.55 0 1,0 -1.1,0ZM10.95,26.5a0.55,0.55 0 1,0 1.1,0a0.55,0.55 0 1,0 -1.1,0ZM14.95,26.5a0.55,0.55 0 1,0 1.1,0a0.55,0.55 0 1,0 -1.1,0ZM17.95,26.5a0.55,0.55 0 1,0 1.1,0a0.55,0.55 0 1,0 -1.1,0ZM20.95,26.5a0.55,0.55 0 1,0 1.1,0a0.55,0.55 0 1,0 -1.1,0ZM21.95,26.5a0.55,0.55 0 1,0 1.1,0a0.55,0.55 0 1,0 -1.1,0ZM22.95,26.5a0.55,0.55 0 1,0 1.1,0a0.55,0.55 0 1,0 -1.1,0ZM23.95,26.5a0.55,0.55 0 1,0 1.1,0a0.55,0.55 0 1,0 -1.1,0ZM25.95,26.5a0.55,0.55 0 1,0 1.1,0a0.55,0.55 0 1,0 -1.1,0ZM27.95,26.5a0.55,0.55 0 1,0 1.1,0a0.55,0.55 0 1,0 -1.1,0ZM8.95,27.5a0.55,0.55 0 1,0 1.1,0a0.55,0.55 0 1,0 -1.1,0ZM13.95,27.5a0.55,0.55 0 1,0 1.1,0a0.55,0.55 0 1,0 -1.1,0ZM14.95,27.5a0.55,0.55 0 1,0 1.1,0a0.55,0.55 0 1,0 -1.1,0ZM16.95,27.5a0.55,0.55 0 1,0 1.1,0a0.55,0.55 0 1,0 -1.1,0ZM17.95,27.5a0.55,0.55 0 1,0 1.1,0a0.55,0.55 0 1,0 -1.1,0ZM18.95,27.5a0.55,0.55 0 1,0 1.1,0a0.55,0.55 0 1,0 -1.1,0ZM22.95,27.5a0.55,0.55 0 1,0 1.1,0a0.55,0.55 0 1,0 -1.1,0ZM23.95,27.5a0.55,0.55 0 1,0 1.1,0a0.55,0.55 0 1,0 -1.1,0ZM27.95,27.5a0.55,0.55 0 1,0 1.1,0a0.55,0.55 0 1,0 -1.1,0ZM29.95,27.5a0.55,0.55 0 1,0 1.1,0a0.55,0.55 0 1,0 -1.1,0ZM30.95,27.5a0.55,0.55 0 1,0 1.1,0a0.55,0.55 0 1,0 -1.1,0ZM7.95,28.5a0.55,0.55 0 1,0 1.1,0a0.55,0.55 0 1,0 -1.1,0ZM10.95,28.5a0.55,0.55 0 1,0 1.1,0a0.55,0.55 0 1,0 -1.1,0ZM12.95,28.5a0.55,0.55 0 1,0 1.1,0a0.55,0.55 0 1,0 -1.1,0ZM14.95,28.5a0.55,0.55 0 1,0 1.1,0a0.55,0.55 0 1,0 -1.1,0ZM19.95,28.5a0.55,0.55 0 1,0 1.1,0a0.55,0.55 0 1,0 -1.1,0ZM20.95,28.5a0.55,0.55 0 1,0 1.1,0a0.55,0.55 0 1,0 -1.1,0ZM22.95,28.5a0.55,0.55 0 1,0 1.1,0a0.55,0.55 0 1,0 -1.1,0ZM23.95,28.5a0.55,0.55 0 1,0 1.1,0a0.55,0.55 0 1,0 -1.1,0ZM24.95,28.5a0.55,0.55 0 1,0 1.1,0a0.55,0.55 0 1,0 -1.1,0ZM25.95,28.5a0.55,0.55 0 1,0 1.1,0a0.55,0.55 0 1,0 -1.1,0ZM26.95,28.5a0.55,0.55 0 1,0 1.1,0a0.55,0.55 0 1,0 -1.1,0ZM27.95,28.5a0.55,0.55 0 1,0 1.1,0a0.55,0.55 0 1,0 -1.1,0ZM28.95,28.5a0.55,0.55 0 1,0 1.1,0a0.55,0.55 0 1,0 -1.1,0ZM30.95,28.5a0.55,0.55 0 1,0 1.1,0a0.55,0.55 0 1,0 -1.1,0ZM7.95,29.5a0.55,0.55 0 1,0 1.1,0a0.55,0.55 0 1,0 -1.1,0ZM9.95,29.5a0.55,0.55 0 1,0 1.1,0a0.55,0.55 0 1,0 -1.1,0ZM10.95,29.5a0.55,0.55 0 1,0 1.1,0a0.55,0.55 0 1,0 -1.1,0ZM12.95,29.5a0.55,0.55 0 1,0 1.1,0a0.55,0.55 0 1,0 -1.1,0ZM16.95,29.5a0.55,0.55 0 1,0 1.1,0a0.55,0.55 0 1,0 -1.1,0ZM18.95,29.5a0.55,0.55 0 1,0 1.1,0a0.55,0.55 0 1,0 -1.1,0ZM19.95,29.5a0.55,0.55 0 1,0 1.1,0a0.55,0.55 0 1,0 -1.1,0ZM20.95,29.5a0.55,0.55 0 1,0 1.1,0a0.55,0.55 0 1,0 -1.1,0ZM24.95,29.5a0.55,0.55 0 1,0 1.1,0a0.55,0.55 0 1,0 -1.1,0ZM26.95,29.5a0.55,0.55 0 1,0 1.1,0a0.55,0.55 0 1,0 -1.1,0ZM29.95,29.5a0.55,0.55 0 1,0 1.1,0a0.55,0.55 0 1,0 -1.1,0ZM30.95,29.5a0.55,0.55 0 1,0 1.1,0a0.55,0.55 0 1,0 -1.1,0ZM8.95,30.5a0.55,0.55 0 1,0 1.1,0a0.55,0.55 0 1,0 -1.1,0ZM10.95,30.5a0.55,0.55 0 1,0 1.1,0a0.55,0.55 0 1,0 -1.1,0ZM11.95,30.5a0.55,0.55 0 1,0 1.1,0a0.55,0.55 0 1,0 -1.1,0ZM12.95,30.5a0.55,0.55 0 1,0 1.1,0a0.55,0.55 0 1,0 -1.1,0ZM13.95,30.5a0.55,0.55 0 1,0 1.1,0a0.55,0.55 0 1,0 -1.1,0ZM14.95,30.5a0.55,0.55 0 1,0 1.1,0a0.55,0.55 0 1,0 -1.1,0ZM15.95,30.5a0.55,0.55 0 1,0 1.1,0a0.55,0.55 0 1,0 -1.1,0ZM16.95,30.5a0.55,0.55 0 1,0 1.1,0a0.55,0.55 0 1,0 -1.1,0ZM21.95,30.5a0.55,0.55 0 1,0 1.1,0a0.55,0.55 0 1,0 -1.1,0ZM27.95,30.5a0.55,0.55 0 1,0 1.1,0a0.55,0.55 0 1,0 -1.1,0ZM29.95,30.5a0.55,0.55 0 1,0 1.1,0a0.55,0.55 0 1,0 -1.1,0ZM30.95,30.5a0.55,0.55 0 1,0 1.1,0a0.55,0.55 0 1,0 -1.1,0ZM31.95,30.5a0.55,0.55 0 1,0 1.1,0a0.55,0.55 0 1,0 -1.1,0ZM8.95,31.5a0.55,0.55 0 1,0 1.1,0a0.55,0.55 0 1,0 -1.1,0ZM9.95,31.5a0.55,0.55 0 1,0 1.1,0a0.55,0.55 0 1,0 -1.1,0ZM11.95,31.5a0.55,0.55 0 1,0 1.1,0a0.55,0.55 0 1,0 -1.1,0ZM17.95,31.5a0.55,0.55 0 1,0 1.1,0a0.55,0.55 0 1,0 -1.1,0ZM18.95,31.5a0.55,0.55 0 1,0 1.1,0a0.55,0.55 0 1,0 -1.1,0ZM19.95,31.5a0.55,0.55 0 1,0 1.1,0a0.55,0.55 0 1,0 -1.1,0ZM21.95,31.5a0.55,0.55 0 1,0 1.1,0a0.55,0.55 0 1,0 -1.1,0ZM24.95,31.5a0.55,0.55 0 1,0 1.1,0a0.55,0.55 0 1,0 -1.1,0ZM25.95,31.5a0.55,0.55 0 1,0 1.1,0a0.55,0.55 0 1,0 -1.1,0ZM29.95,31.5a0.55,0.55 0 1,0 1.1,0a0.55,0.55 0 1,0 -1.1,0ZM30.95,31.5a0.55,0.55 0 1,0 1.1,0a0.55,0.55 0 1,0 -1.1,0ZM31.95,31.5a0.55,0.55 0 1,0 1.1,0a0.55,0.55 0 1,0 -1.1,0ZM8.95,32.5a0.55,0.55 0 1,0 1.1,0a0.55,0.55 0 1,0 -1.1,0ZM10.95,32.5a0.55,0.55 0 1,0 1.1,0a0.55,0.55 0 1,0 -1.1,0ZM11.95,32.5a0.55,0.55 0 1,0 1.1,0a0.55,0.55 0 1,0 -1.1,0ZM13.95,32.5a0.55,0.55 0 1,0 1.1,0a0.55,0.55 0 1,0 -1.1,0ZM15.95,32.5a0.55,0.55 0 1,0 1.1,0a0.55,0.55 0 1,0 -1.1,0ZM17.95,32.5a0.55,0.55 0 1,0 1.1,0a0.55,0.55 0 1,0 -1.1,0ZM18.95,32.5a0.55,0.55 0 1,0 1.1,0a0.55,0.55 0 1,0 -1.1,0ZM22.95,32.5a0.55,0.55 0 1,0 1.1,0a0.55,0.55 0 1,0 -1.1,0ZM23.95,32.5a0.55,0.55 0 1,0 1.1,0a0.55,0.55 0 1,0 -1.1,0ZM27.95,32.5a0.55,0.55 0 1,0 1.1,0a0.55,0.55 0 1,0 -1.1,0ZM29.95,32.5a0.55,0.55 0 1,0 1.1,0a0.55,0.55 0 1,0 -1.1,0Z"/>
    <circle cx="3.5" cy="3.5" r="3" fill="none" stroke="#21131d" stroke-width="1"/><circle cx="3.5" cy="3.5" r="1.5"/><circle cx="29.5" cy="3.5" r="3" fill="none" stroke="#21131d" stroke-width="1"/><circle cx="29.5" cy="3.5" r="1.5"/><circle cx="3.5" cy="29.5" r="3" fill="none" stroke="#21131d" stroke-width="1"/><circle cx="3.5" cy="29.5" r="1.5"/>
  </g>
</svg>
